<svg width="65" height="64" viewBox="0 0 65 64" fill="none" xmlns="http://www.w3.org/2000/svg">
<path d="M36.1438 20.7595C35.7 20.7595 35.3402 21.1145 35.3402 21.5524V35.0912C35.3402 35.5291 35.7 35.8841 36.1438 35.8841H37.6026C38.0464 35.8841 38.4062 35.5291 38.4062 35.0912V21.5524C38.4062 21.1145 38.0464 20.7595 37.6026 20.7595H36.1438Z" fill="#2C2C22"/>
<path fill-rule="evenodd" clip-rule="evenodd" d="M31.6311 6.42714C31.6311 5.63895 32.2788 5 33.0777 5H40.6685C41.4674 5 42.115 5.63895 42.115 6.42714L42.1151 38.116C42.1151 38.9042 41.4674 39.5432 40.6685 39.5432H33.0777C32.2788 39.5432 31.6311 38.9042 31.6311 38.116L31.6311 6.42714ZM33.0777 6.26857C32.9889 6.26857 32.9169 6.33957 32.9169 6.42714V12.5623H40.8292V6.42714C40.8292 6.33957 40.7573 6.26857 40.6685 6.26857H33.0777ZM32.917 18.3688V38.116C32.917 38.2036 32.9889 38.2746 33.0777 38.2746H40.6685C40.7573 38.2746 40.8292 38.2036 40.8292 38.116V18.3688H32.917ZM32.917 17.1001V13.8313H40.8292V17.1001H32.917Z" fill="#2C2C22"/>
<path fill-rule="evenodd" clip-rule="evenodd" d="M34.9469 43.1839C32.3955 42.0337 29.0479 40.8597 25.308 40.8597C22.8404 40.8597 20.5899 42.2843 18.9064 43.7141C18.053 44.4389 17.3188 45.1881 16.7457 45.8056C16.5706 45.9944 16.4155 46.1651 16.2784 46.3172C15.8666 45.8489 15.1913 45.6635 14.5681 45.9493L10.577 47.7801C9.78973 48.1412 9.47064 49.078 9.78845 49.8418L13.6287 59.0713C13.9496 59.8428 14.8344 60.2318 15.6248 59.8542L19.5495 57.9792C20.3201 57.611 20.6297 56.6889 20.3195 55.9339L19.5139 53.9731C19.7465 53.895 20.0263 53.8029 20.3352 53.7013C20.6205 53.6074 20.9307 53.5053 21.2512 53.3986C22.2812 53.0558 23.4203 52.6646 23.9948 52.392C24.1581 52.3145 24.4501 52.2446 24.8626 52.2036C25.2611 52.1639 25.7202 52.1559 26.1822 52.171C27.128 52.2019 27.9845 52.3259 28.2955 52.4244C28.7165 52.5576 29.785 52.8111 30.9398 53.0852L30.9947 53.0982C32.1926 53.3825 33.5075 53.6946 34.4238 53.9432C36.4312 54.4876 38.4678 54.2252 39.9567 53.3772C40.5757 53.0246 42.9837 51.9719 45.5212 50.926C48.0563 49.881 50.5998 48.8927 51.4798 48.654C52.4268 48.3972 53.4015 48.0692 54.1524 47.6959C54.5253 47.5105 54.875 47.2983 55.1407 47.0564C55.3938 46.8259 55.6667 46.4796 55.6667 46.0275C55.6667 45.6164 55.4541 45.2627 55.1938 44.9946C54.9279 44.7207 54.5636 44.4825 54.1318 44.2865C53.2656 43.8932 52.0417 43.6302 50.5134 43.6302C48.9757 43.6302 46.5182 44.0877 44.3488 44.5246C43.9173 44.6115 43.4967 44.6977 43.0936 44.7803L43.0915 44.7807C42.464 44.9094 41.8789 45.0293 41.3605 45.1297C40.4843 45.2992 39.8906 45.3933 39.6353 45.3933C39.6317 45.393 39.595 45.3904 39.5128 45.3671L39.4923 45.3611L39.4698 45.3542C38.5719 44.7591 37.5531 44.2826 36.5223 43.9328C36.0372 43.6918 35.5097 43.4376 34.9469 43.1839ZM15.3782 47.2796L15.2694 47.3857L15.4228 47.7742C15.9466 49.1001 16.7724 50.9184 17.385 52.2675C17.5613 52.6559 17.7204 53.006 17.8491 53.2936L19.1517 56.464C19.2183 56.6262 19.1374 56.7691 19.0434 56.814L15.1186 58.689C15.0232 58.7346 14.8636 58.7024 14.7944 58.536L10.9542 49.3065C10.8857 49.142 10.9693 48.9977 11.0648 48.9539L15.0559 47.1231C15.1517 47.0792 15.3102 47.1142 15.3782 47.2796ZM19.0039 52.7318L19.0322 52.7951C19.3065 52.7024 19.6401 52.5926 19.9981 52.4748C20.2698 52.3854 20.5556 52.2913 20.8402 52.1966C21.8989 51.8443 22.9506 51.4799 23.4374 51.2488C23.8048 51.0744 24.2756 50.9869 24.7336 50.9414C25.2057 50.8944 25.725 50.8868 26.2248 50.9031C27.2025 50.9351 28.2033 51.063 28.6882 51.2164C29.0566 51.333 30.0833 51.5772 31.2954 51.8648L31.3041 51.8669C32.4918 52.1488 33.8261 52.4654 34.7646 52.72C36.4717 53.183 38.1496 52.9416 39.3139 52.2785C40.0215 51.8755 42.5219 50.7874 45.0255 49.7554C47.5314 48.7225 50.1617 47.6959 51.1389 47.4309C52.0492 47.184 52.9317 46.8823 53.5737 46.563C53.8973 46.4021 54.128 46.2522 54.2686 46.1242C54.3263 46.0716 54.3565 46.0344 54.3717 46.0124C54.3589 45.9861 54.33 45.9388 54.2652 45.872C54.1414 45.7445 53.9254 45.5892 53.5943 45.4389C52.935 45.1395 51.9036 44.8988 50.5134 44.8988C49.1326 44.8988 46.8143 45.3228 44.6059 45.7675C44.1856 45.8522 43.7693 45.9375 43.3673 46.0199C42.732 46.1501 42.1323 46.273 41.608 46.3745C41.3572 46.423 41.1155 46.4684 40.8889 46.5081C41.3612 46.9865 41.7544 47.5138 42.0379 48.0879C42.1753 48.3662 42.2506 48.7512 42.0175 49.1082C41.8175 49.4147 41.4856 49.5396 41.2513 49.5987C40.7633 49.7217 40.0833 49.7052 39.4067 49.6467C38.3059 49.5516 36.959 49.3168 35.8693 49.1269C35.5859 49.0775 35.3197 49.0311 35.0799 48.991C32.9518 48.6352 28.7413 47.5783 26.3407 46.8759C26.0003 46.7763 25.8062 46.4233 25.9072 46.0875C26.0081 45.7516 26.3659 45.5601 26.7063 45.6597C29.0858 46.3559 33.2402 47.3968 35.2947 47.7403C35.5538 47.7836 35.8341 47.8324 36.1277 47.8835C37.2137 48.0726 38.481 48.2933 39.5189 48.383C40.0592 48.4297 40.4761 48.4342 40.7518 48.4014C40.3409 47.6953 39.6896 47.0508 38.8841 46.4959C38.8165 46.4707 38.7502 46.4442 38.6858 46.4176C38.3619 46.2834 37.9796 46.0964 37.5587 45.8838C37.3861 45.7967 37.2054 45.7044 37.0166 45.608C36.2718 45.2278 35.4018 44.7837 34.4125 44.3377C31.9355 43.2211 28.7828 42.1283 25.308 42.1283C23.3183 42.1283 21.3689 43.2965 19.7453 44.6755C18.9451 45.3551 18.2489 46.0644 17.6941 46.6622C17.4656 46.9085 17.2495 47.1493 17.059 47.3615L16.8795 47.5611L19.0039 52.7318ZM41.0133 48.3427L41.0095 48.3448C41.0122 48.3435 41.0133 48.3427 41.0133 48.3427Z" fill="#2C2C22"/>
<path d="M51.5604 26.1262L52.4954 28.619L55.0221 29.5414L52.4954 30.4639L51.5604 32.9567L50.6255 30.4639L48.0988 29.5414L50.6255 28.619L51.5604 26.1262Z" fill="#2C2C22"/>
<path d="M24.8013 11.5432L23.8664 9.05038L22.9314 11.5432L20.4047 12.4656L22.9314 13.388L23.8664 15.8808L24.8013 13.388L27.328 12.4656L24.8013 11.5432Z" fill="#2C2C22"/>
<path d="M25.5981 28.6865C25.5981 29.1581 25.2106 29.5403 24.7327 29.5403C24.2547 29.5403 23.8672 29.1581 23.8672 28.6865C23.8672 28.215 24.2547 27.8327 24.7327 27.8327C25.2106 27.8327 25.5981 28.215 25.5981 28.6865Z" fill="#2C2C22"/>
<path d="M48.9642 12.4645C49.4421 12.4645 49.8296 12.0822 49.8296 11.6107C49.8296 11.1391 49.4421 10.7569 48.9642 10.7569C48.4862 10.7569 48.0988 11.1391 48.0988 11.6107C48.0988 12.0822 48.4862 12.4645 48.9642 12.4645Z" fill="#2C2C22"/>
</svg>
