<svg width="64" height="64" viewBox="0 0 64 64" fill="none" xmlns="http://www.w3.org/2000/svg">
<path fill-rule="evenodd" clip-rule="evenodd" d="M38.981 18.8041H34.8939C34.4835 18.8041 34.1508 19.1368 34.1508 19.5472V22.1481H39.7241V19.5472C39.7241 19.1368 39.3914 18.8041 38.981 18.8041ZM34.8939 17.6895C33.8679 17.6895 33.0361 18.5212 33.0361 19.5472V23.2627H40.8387V19.5472C40.8387 18.5212 40.007 17.6895 38.981 17.6895H34.8939Z" fill="#2C2C22"/>
<path fill-rule="evenodd" clip-rule="evenodd" d="M38.609 15.4604H35.265V17.3181H38.609V15.4604ZM34.1504 14.3457V18.4328H39.7237V14.3457H34.1504Z" fill="#2C2C22"/>
<path fill-rule="evenodd" clip-rule="evenodd" d="M38.609 14.3469V8.21633C38.609 7.29292 37.8604 6.54434 36.937 6.54434C36.0136 6.54434 35.265 7.29292 35.265 8.21633V14.3469H38.609ZM36.937 5.42969C35.398 5.42969 34.1504 6.67731 34.1504 8.21633V15.4616H39.7237V8.21633C39.7237 6.67731 38.476 5.42969 36.937 5.42969Z" fill="#2C2C22"/>
<path fill-rule="evenodd" clip-rule="evenodd" d="M34.3369 12.8594H39.1671V13.6025H34.3369V12.8594Z" fill="#2C2C22"/>
<path fill-rule="evenodd" clip-rule="evenodd" d="M26.1887 9.5662C26.2668 9.37642 26.4839 9.28585 26.6737 9.36391L31.6874 11.4261C31.8772 11.5042 31.9677 11.7213 31.8897 11.9111C31.8116 12.1008 31.5945 12.1914 31.4047 12.1134L26.391 10.0512C26.2013 9.97309 26.1107 9.75597 26.1887 9.5662Z" fill="#2C2C22"/>
<path fill-rule="evenodd" clip-rule="evenodd" d="M26.2621 18.1899C26.173 18.005 26.2507 17.7829 26.4356 17.6939L31.3198 15.3415C31.5047 15.2524 31.7268 15.3301 31.8158 15.515C31.9048 15.6999 31.8272 15.9219 31.6423 16.011L26.758 18.3634C26.5732 18.4524 26.3511 18.3748 26.2621 18.1899Z" fill="#2C2C22"/>
<path fill-rule="evenodd" clip-rule="evenodd" d="M24.4906 13.8444C24.4877 13.6392 24.6517 13.4705 24.8569 13.4676L30.2776 13.3917C30.4828 13.3888 30.6515 13.5528 30.6544 13.758C30.6572 13.9632 30.4932 14.1319 30.288 14.1347L24.8673 14.2107C24.6622 14.2135 24.4935 14.0495 24.4906 13.8444Z" fill="#2C2C22"/>
<path fill-rule="evenodd" clip-rule="evenodd" d="M15.6774 6.79343C16.1983 6.39558 16.8548 6.15224 17.5731 6.13819C19.3134 6.10414 20.748 7.42909 20.7831 9.09174L21.5181 9.07736C21.4747 7.0213 19.7018 5.38854 17.5581 5.43048C16.6376 5.44849 15.7984 5.77241 15.1439 6.299C15.3126 6.47228 15.4879 6.63441 15.6774 6.79343ZM12.7511 8.92512C12.9125 9.10804 13.0641 9.3014 13.213 9.51262C11.7794 10.0049 10.7352 11.3562 10.7352 12.9706C10.7352 15.0088 12.3998 16.6278 14.4112 16.6278V16.7458C14.4452 18.3668 15.8739 19.9216 17.5731 19.9548C19.3134 19.9889 20.748 18.6639 20.7831 17.0013L21.5181 17.0156C21.4747 19.0717 19.7018 20.7045 17.5581 20.6625C15.5647 20.6235 13.9526 19.1499 13.7715 17.2901C11.6384 16.9835 10 15.1664 10 12.9706C10 11.1409 11.1376 9.57412 12.7511 8.92512Z" fill="#2C2C22"/>
<path fill-rule="evenodd" clip-rule="evenodd" d="M13.8974 4L14.2127 4.48254C15.0974 5.83675 15.6765 6.4121 16.8954 7.23084L17.3229 7.51793L16.9157 7.83309C15.5701 8.87466 15.022 9.53119 14.2172 10.8266L13.8835 11.364L13.5767 10.8108C13.1751 10.0867 12.8366 9.57491 12.4395 9.13243C12.043 8.69063 11.5763 8.3048 10.9053 7.84598L10.4463 7.53216L10.9119 7.22817C11.5806 6.79153 12.0378 6.43306 12.4304 6.02693C12.8239 5.61991 13.164 5.15315 13.5881 4.48636L13.8974 4ZM13.9061 5.35733C13.5946 5.81712 13.3004 6.19609 12.9646 6.54342C12.6216 6.89826 12.242 7.21302 11.7677 7.54648C12.2522 7.90392 12.6429 8.24656 12.9925 8.6361C13.3283 9.01022 13.6195 9.42029 13.9181 9.91534C14.5331 8.98681 15.0897 8.35428 16.0648 7.55955C15.1628 6.91317 14.5878 6.3347 13.9061 5.35733Z" fill="#2C2C22"/>
<path fill-rule="evenodd" clip-rule="evenodd" d="M15.3299 16.7168L15.5099 17.3466C15.648 17.8302 15.9966 18.2259 16.4589 18.4241L17.1182 18.7066L16.9719 19.0482L16.3125 18.7656C15.7475 18.5234 15.3215 18.0398 15.1526 17.4487L14.9727 16.8189L15.3299 16.7168Z" fill="#2C2C22"/>
<path fill-rule="evenodd" clip-rule="evenodd" d="M30.916 26.4219H42.4962L42.6133 26.4799L42.3656 26.9792C42.6133 26.4799 42.6132 26.4799 42.6133 26.4799L42.6146 26.4806L42.6178 26.4822L42.6294 26.488L42.6732 26.51C42.7113 26.5293 42.7669 26.5576 42.8382 26.5944C42.9808 26.668 43.1862 26.7755 43.4395 26.9125C43.9458 27.1862 44.6451 27.5781 45.4176 28.0514C46.9492 28.9898 48.8195 30.2785 50.0257 31.623C51.4586 33.2201 52.5729 34.6656 53.3693 36.2676C54.1691 37.8766 54.636 39.6179 54.8108 41.7967C54.9843 43.9597 54.8157 45.7478 54.2955 47.458C53.7771 49.1621 52.9181 50.7604 51.7494 52.5495C50.6567 54.2224 49.1286 55.795 47.691 56.995C46.9706 57.5963 46.265 58.1106 45.6381 58.5012C45.0229 58.8845 44.4448 59.1731 43.987 59.2876C43.7495 59.347 43.3654 59.3899 42.914 59.4245C42.4485 59.4601 41.8699 59.4895 41.2187 59.5129C39.9155 59.5596 38.3063 59.5829 36.6994 59.5829C35.0926 59.5829 33.4833 59.5596 32.1802 59.5129C31.529 59.4895 30.9504 59.4601 30.4849 59.4245C30.0335 59.3899 29.6495 59.347 29.4119 59.2876C28.9501 59.1721 28.3787 58.8786 27.7771 58.492C27.1634 58.0977 26.4768 57.5793 25.7772 56.9756C24.3807 55.7705 22.9019 54.1989 21.8338 52.5474C20.672 50.7509 19.8351 49.1545 19.3259 47.454C18.8154 45.7488 18.643 43.9676 18.7731 41.8078C18.9009 39.6859 19.2495 37.9453 19.9294 36.3234C20.6088 34.7027 21.6066 33.2301 22.9955 31.6298C24.2286 30.2092 26.2036 28.9168 27.8246 27.9942C28.6432 27.5282 29.3871 27.148 29.9265 26.8841C30.1964 26.752 30.4156 26.6489 30.5679 26.5785C30.6441 26.5433 30.7036 26.5163 30.7444 26.4979L30.7913 26.4768L30.8037 26.4713L30.8081 26.4694C30.8082 26.4693 30.8086 26.4691 31.0333 26.9792L30.8081 26.4694L30.916 26.4219ZM31.1528 27.5365C31.1206 27.5512 31.0813 27.5692 31.0355 27.5903C30.8899 27.6576 30.6781 27.7573 30.4163 27.8853C29.8924 28.1416 29.1698 28.511 28.376 28.9629C26.7722 29.8757 24.9389 31.0913 23.8373 32.3605C22.4973 33.9044 21.5767 35.2769 20.9574 36.7543C20.3386 38.2305 20.0082 39.8409 19.8857 41.8748C19.7617 43.9326 19.9282 45.5791 20.3938 47.1343C20.8607 48.694 21.637 50.1905 22.7698 51.9421C23.7662 53.4829 25.1669 54.9766 26.5054 56.1317C27.1733 56.708 27.818 57.1934 28.3796 57.5542C28.9532 57.9228 29.4009 58.1359 29.6823 58.2062C29.8163 58.2397 30.1115 58.278 30.57 58.3131C31.0146 58.3471 31.5767 58.3758 32.2202 58.3989C33.5063 58.4451 35.1016 58.4682 36.6994 58.4682C38.2973 58.4682 39.8926 58.4451 41.1787 58.3989C41.8222 58.3758 42.3843 58.3471 42.8289 58.3131C43.2874 58.278 43.5827 58.2397 43.7167 58.2062C44.0019 58.1349 44.4607 57.9214 45.0487 57.5551C45.6249 57.1962 46.2888 56.7135 46.9767 56.1393C48.3559 54.9881 49.8002 53.4955 50.8162 51.9399C51.9583 50.1915 52.7544 48.694 53.2291 47.1336C53.7019 45.5795 53.8641 43.9347 53.6997 41.8859C53.5345 39.8268 53.0987 38.2273 52.3712 36.7638C51.6401 35.2933 50.6022 33.9347 49.196 32.3673C48.1041 31.1503 46.3517 29.931 44.8352 29.0018C44.0837 28.5414 43.4025 28.1596 42.9094 27.893C42.663 27.7598 42.464 27.6556 42.3271 27.5849C42.2913 27.5665 42.2598 27.5503 42.2328 27.5365H31.1528Z" fill="#2C2C22"/>
<path fill-rule="evenodd" clip-rule="evenodd" d="M25.7816 36.1635C27.2507 35.6847 28.9701 35.5272 30.3892 35.9801C31.3171 36.2763 32.1925 36.8556 33.0199 37.4989C33.4791 37.8558 33.9653 38.2677 34.4444 38.6736C34.8013 38.9759 35.1543 39.275 35.4894 39.5455C37.1621 40.8965 38.7233 41.8284 40.4396 41.4566C40.9683 41.3421 41.4852 41.0963 42.0287 40.7758C42.2996 40.6161 42.5699 40.4423 42.8493 40.2609C42.8801 40.2409 42.911 40.2209 42.942 40.2007C43.1897 40.0398 43.4453 39.8737 43.7037 39.7158C44.8647 39.0061 46.2201 38.3701 47.8845 38.8122C49.8996 39.3475 51.1273 40.2143 51.7281 41.4607C52.3123 42.6728 52.2357 44.117 51.97 45.6393C51.4323 48.7192 49.9536 51.176 47.8163 53.6964C45.9319 55.9186 43.5278 57.1301 42.2594 57.4213C42.0683 57.4652 41.7653 57.4959 41.4177 57.5203C41.0571 57.5456 40.6094 57.5664 40.1063 57.5829C39.0994 57.6161 37.8563 57.6325 36.6154 57.6325C35.3746 57.6325 34.1314 57.6161 33.1245 57.5829C32.6214 57.5664 32.1737 57.5456 31.8131 57.5203C31.4655 57.4959 31.1625 57.4652 30.9714 57.4213C29.6948 57.1282 27.577 56.07 25.5875 53.6937C23.6337 51.3602 22.1537 49.1008 21.611 45.9934C21.0733 42.9137 21.3052 40.467 22.3737 38.5428C22.9663 37.4755 24.3309 36.6362 25.7816 36.1635ZM26.127 37.2232C24.7807 37.662 23.739 38.3802 23.3482 39.0839C22.4497 40.7019 22.1954 42.8598 22.7091 45.8017C23.2027 48.6281 24.5406 50.707 26.4422 52.9782C28.2945 55.1905 30.2079 56.1023 31.2208 56.3349C31.3159 56.3567 31.5367 56.3835 31.8912 56.4084C32.2326 56.4323 32.6652 56.4526 33.1612 56.4689C34.1525 56.5015 35.3828 56.5179 36.6154 56.5179C37.848 56.5179 39.0784 56.5015 40.0696 56.4689C40.5656 56.4526 40.9982 56.4323 41.3397 56.4084C41.6941 56.3835 41.915 56.3567 42.01 56.3349C43.0312 56.1004 45.2287 55.0244 46.9662 52.9755C49.034 50.537 50.3811 48.2588 50.8719 45.4476C51.1318 43.9592 51.1458 42.8198 50.724 41.9447C50.3187 41.1038 49.4438 40.3797 47.5983 39.8895C46.3962 39.5702 45.3861 39.9937 44.2851 40.6668C44.0407 40.8162 43.7985 40.9735 43.5492 41.1354C43.5183 41.1555 43.4873 41.1757 43.4561 41.1959C43.1768 41.3772 42.8885 41.5629 42.5949 41.736C42.0093 42.0813 41.3734 42.3948 40.6756 42.546C38.3973 43.0395 36.4542 41.7575 34.789 40.4127C34.3996 40.0982 34.0373 39.7906 33.6833 39.49C33.2337 39.1082 32.7974 38.7378 32.3358 38.3789C31.5369 37.7579 30.787 37.2772 30.0503 37.042C28.9233 36.6823 27.455 36.7905 26.127 37.2232Z" fill="#2C2C22"/>
<path fill-rule="evenodd" clip-rule="evenodd" d="M31.5504 23.8217C31.4478 23.8217 31.3647 23.9049 31.3647 24.0075V26.9799H30.25V24.0075C30.25 23.2893 30.8322 22.707 31.5504 22.707H41.5823C42.3005 22.707 42.8828 23.2893 42.8828 24.0075V26.9799H41.7681V24.0075C41.7681 23.9049 41.6849 23.8217 41.5823 23.8217H31.5504Z" fill="#2C2C22"/>
<path fill-rule="evenodd" clip-rule="evenodd" d="M42.9873 29.1905L43.1487 28.8558L43.1531 28.858L43.1656 28.864L43.2132 28.8874C43.2547 28.9079 43.3152 28.9379 43.3913 28.9765C43.5436 29.0536 43.7589 29.1647 44.0115 29.3011C44.516 29.5736 45.1723 29.9484 45.7731 30.3556C47.145 31.2852 48.9664 32.9844 50.0963 34.6791C50.3393 35.0436 50.6219 35.5623 50.8416 35.9848C50.952 36.1971 51.0474 36.387 51.1153 36.5239C51.1492 36.5923 51.1763 36.6475 51.1949 36.6857L51.2163 36.7297L51.2218 36.7412L51.2237 36.7451L50.8889 36.9062L50.8818 36.8915L50.8609 36.8485C50.8426 36.811 50.8159 36.7566 50.7824 36.6889C50.7153 36.5537 50.621 36.366 50.5119 36.1562C50.2928 35.7348 50.0181 35.2316 49.7871 34.8852C48.6877 33.2361 46.9028 31.5699 45.5646 30.6631C44.9783 30.2658 44.3341 29.8976 43.835 29.628C43.5857 29.4935 43.3734 29.3839 43.2235 29.308C43.1486 29.2701 43.0893 29.2406 43.0489 29.2206L43.0027 29.198L42.991 29.1923L42.9873 29.1905Z" fill="#2C2C22"/>
</svg>
